<svg version="1.2" xmlns="http://www.w3.org/2000/svg" viewBox="0 0 200 200" width="200" height="200"><style>tspan{white-space:pre}.a{opacity:.2;fill:none;stroke:#000;stroke-width:4}.b{opacity:.8;fill:none;stroke:#000;stroke-width:3}.c{fill:none;stroke:#000;stroke-width:3}.d{fill:none;stroke:#000;stroke-width:2}.e{opacity:.7}.f{opacity:.8}.g{opacity:.3;fill:#fff}.h{opacity:.7;fill:#fff}.i{font-size: 14px;fill: #000000;font-family: "Arial"}.j{font-size: 8px;fill: #000000;font-family: "Arial"}</style><path fill-rule="evenodd" class="a" d="m100 195c-52.5 0-95-42.5-95-95 0-52.5 42.5-95 95-95 52.5 0 95 42.5 95 95 0 52.5-42.5 95-95 95z"/><path fill-rule="evenodd" class="b" d="m100 125c-19.4 0-35-15.6-35-35 0-19.4 15.6-35 35-35 19.4 0 35 15.6 35 35 0 19.4-15.6 35-35 35z"/><path fill-rule="evenodd" class="c" d="m100 90v-25"/><path fill-rule="evenodd" class="d" d="m100 90h20"/><path fill-rule="evenodd" d="m100 93c-1.7 0-3-1.3-3-3 0-1.7 1.3-3 3-3 1.7 0 3 1.3 3 3 0 1.7-1.3 3-3 3z"/><path class="e" d="m99.7 90c1-0.6 2.2-0.2 2.8 0.7l8 13.9c0.5 0.9 0.2 2.2-0.8 2.7-0.9 0.6-2.1 0.2-2.7-0.7l-8-13.9c-0.6-0.9-0.2-2.1 0.7-2.7zm0.8 1.3c-1.5 0.8-3 0.9-3.4 0.2-0.4-0.7 0.4-2 1.9-2.8 1.4-0.8 2.9-0.9 3.3-0.2 0.4 0.7-0.4 2-1.8 2.8z"/><path fill-rule="evenodd" class="f" d="m97 133h6c1.7 0 3 1.3 3 3v14c0 1.7-1.3 3-3 3h-6c-1.7 0-3-1.3-3-3v-14c0-1.7 1.3-3 3-3z"/><path fill-rule="evenodd" class="g" d="m96 136h8v10h-8z"/><path fill-rule="evenodd" class="h" d="m100 150.5c-0.8 0-1.5-0.7-1.5-1.5 0-0.8 0.7-1.5 1.5-1.5 0.8 0 1.5 0.7 1.5 1.5 0 0.8-0.7 1.5-1.5 1.5z"/><text style="transform:matrix(1,0,0,1,84,168)" ><tspan x="0" y="0" class="i">24/7
</tspan></text><text style="transform:matrix(1,0,0,1,81,179)" ><tspan x="0" y="0" class="j">SUPPORT
</tspan></text></svg>